<?xml version="1.0" standalone="no"?>
<!DOCTYPE svg PUBLIC "-//W3C//DTD SVG 1.1//EN" "http://www.w3.org/Graphics/SVG/1.1/DTD/svg11.dtd" >
<svg xmlns="http://www.w3.org/2000/svg" xmlns:xlink="http://www.w3.org/1999/xlink" version="1.1">
<metadata></metadata>
<defs>
<font id="code_nextextrabold" horiz-adv-x="1425" >
<font-face units-per-em="2048" ascent="1638" descent="-410" />
<missing-glyph horiz-adv-x="544" />
<glyph unicode="&#xfb01;" horiz-adv-x="1486" d="M45 768v297h178v47q0 173 112 260.5t310 87.5q93 0 184 -16v-250q-47 8 -96 8q-82 0 -120 -28.5t-38 -92.5v-16h777v-1065h-365v774h-401v-774h-363v768h-178zM958 1343q0 88 58 142.5t153 54.5t152 -54.5t57 -142.5q0 -89 -57 -142.5t-152 -53.5t-153 53.5t-58 142.5z " />
<glyph unicode="&#xfb02;" horiz-adv-x="1492" d="M45 770v299h178v43q0 174 112 261t310 87q80 0 189 -16v-250q-44 8 -101 8q-82 0 -120 -31.5t-38 -99.5v-8h246v-293h-235v-770h-363v770h-178zM999 0v1434h365v-1434h-365z" />
<glyph horiz-adv-x="0" />
<glyph horiz-adv-x="682" />
<glyph unicode="&#xd;" horiz-adv-x="544" />
<glyph unicode=" "  horiz-adv-x="544" />
<glyph unicode="&#x09;" horiz-adv-x="544" />
<glyph unicode="&#xa0;" horiz-adv-x="544" />
<glyph unicode="!" horiz-adv-x="647" d="M123 170q0 86 55 138t146 52t144.5 -52t53.5 -138q0 -85 -54 -136.5t-144 -51.5q-91 0 -146 51.5t-55 136.5zM133 936v498h381v-498l-37 -479h-307z" />
<glyph unicode="&#x22;" horiz-adv-x="909" d="M102 940v494h295v-494h-295zM512 940v494h295v-494h-295z" />
<glyph unicode="#" horiz-adv-x="1394" d="M102 315v297h181l32 207h-147v299h192l50 316h311l-49 -316h180l49 316h311l-49 -316h129v-299h-174l-33 -207h134v-297h-179l-49 -315h-311l49 315h-180l-49 -315h-312l50 315h-136zM588 606h190l35 219h-192z" />
<glyph unicode="$" horiz-adv-x="1249" d="M61 465h379q12 -146 197 -146q82 0 129 29.5t47 79.5q0 55 -56 87t-190 54q-114 18 -200 48.5t-153 81t-101.5 126.5t-34.5 176q0 176 107 291t288 150v164h295v-164q178 -34 284.5 -152t118.5 -299h-372q-9 63 -54.5 96t-123.5 33t-121 -28t-43 -80t51.5 -79.5 t187.5 -49.5q502 -72 502 -443q0 -184 -113 -300t-305 -148v-176h-295v176q-193 34 -305 156t-119 317z" />
<glyph unicode="%" horiz-adv-x="1835" d="M70 1104q0 152 103.5 254t258.5 102q157 0 261 -102t104 -254t-104 -254t-261 -102q-155 0 -258.5 102t-103.5 254zM311 1104q0 -54 34.5 -89.5t86.5 -35.5q54 0 88.5 35.5t34.5 89.5t-34.5 89.5t-88.5 35.5q-52 0 -86.5 -35.5t-34.5 -89.5zM395 0l779 1434h270 l-780 -1434h-269zM1040 330q0 152 104 254t261 102q156 0 260 -102t104 -254q0 -153 -104 -255t-260 -102t-260.5 102.5t-104.5 254.5zM1282 330q0 -54 35 -89.5t88 -35.5t88 35.5t35 89.5t-35 89.5t-88 35.5t-88 -35.5t-35 -89.5z" />
<glyph unicode="&#x26;" horiz-adv-x="1323" d="M53 387q0 70 18.5 130t53 107t75 83t93.5 69q-69 99 -97 175t-28 153q0 159 118.5 256.5t313.5 97.5q192 0 310 -99t118 -261q0 -61 -17.5 -115t-44 -93.5t-69 -77t-82 -63.5t-92.5 -55q75 -87 178 -202q43 88 43 190h311q0 -245 -141 -428q151 -162 195 -209v-45h-336 l-70 74q-174 -99 -385 -99q-209 0 -337 112t-128 300zM389 403q0 -62 44 -97.5t120 -35.5q69 0 141 29q-146 160 -223 250q-82 -69 -82 -146zM487 1092q0 -73 68 -177q76 41 117 83.5t41 97.5q0 45 -31 73.5t-82 28.5t-82 -28.5t-31 -77.5z" />
<glyph unicode="'" horiz-adv-x="499" d="M102 940v494h295v-494h-295z" />
<glyph unicode="(" horiz-adv-x="870" d="M86 668q0 357 187.5 653t508.5 438v-381q-156 -107 -248 -300.5t-92 -409.5t93.5 -409.5t252.5 -301.5v-383q-323 142 -512.5 439.5t-189.5 654.5z" />
<glyph unicode=")" horiz-adv-x="870" d="M82 -43q160 108 253 301t93 410q0 216 -92 409.5t-248 300.5v381q321 -142 509.5 -438.5t188.5 -652.5q0 -235 -85 -450t-245 -382.5t-374 -261.5v383z" />
<glyph unicode="*" horiz-adv-x="835" d="M41 1102l68 211l194 -68v209h229v-209l195 68l68 -211l-199 -60l125 -170l-182 -131l-121 177l-121 -177l-182 131l125 170z" />
<glyph unicode="+" horiz-adv-x="1007" d="M80 555v307h266v289h316v-289h266v-307h-266v-293h-316v293h-266z" />
<glyph unicode="," horiz-adv-x="614" d="M88 -193l92 508h332v-108l-131 -434h-293v34z" />
<glyph unicode="-" horiz-adv-x="845" d="M80 463v319h688v-319h-688z" />
<glyph unicode="." horiz-adv-x="563" d="M84 170q0 86 54.5 138t144.5 52q89 0 142.5 -52t53.5 -138q0 -85 -53.5 -136.5t-142.5 -51.5t-144 51.5t-55 136.5z" />
<glyph unicode="/" horiz-adv-x="978" d="M43 -88l539 1618h354v-43l-541 -1618h-352v43z" />
<glyph unicode="0" horiz-adv-x="1374" d="M80 717q0 352 159.5 547.5t446.5 195.5q289 0 448.5 -195.5t159.5 -547.5t-160 -548t-448 -196q-287 0 -446.5 196t-159.5 548zM459 717q0 -398 227 -398t227 398q0 397 -227 397t-227 -397z" />
<glyph unicode="1" horiz-adv-x="919" d="M18 1073l502 361h260v-1434h-370v600l2 350l-236 -139z" />
<glyph unicode="2" horiz-adv-x="1208" d="M63 0v236l519 479q94 90 127.5 140.5t33.5 105.5q0 64 -40.5 103.5t-106.5 39.5q-68 0 -109 -46t-41 -122h-364q0 235 142.5 379.5t375.5 144.5q230 0 376 -133t146 -342q0 -133 -65 -247.5t-223 -254.5l-179 -159l164 8h316v-332h-1072z" />
<glyph unicode="3" horiz-adv-x="1187" d="M49 446h375q0 -63 42.5 -99t117.5 -36t118 36t43 99q0 65 -45.5 101.5t-126.5 36.5h-137v311h137q72 0 112 32.5t40 92.5q0 55 -38 87t-103 32q-66 0 -106 -33t-40 -88h-360q0 204 138 323t368 119q229 0 366 -106.5t137 -290.5q0 -99 -39.5 -179.5t-113.5 -131.5 q95 -58 148 -149t53 -200q0 -128 -71.5 -226.5t-196 -151t-281.5 -52.5q-239 0 -388 130t-149 343z" />
<glyph unicode="4" horiz-adv-x="1251" d="M18 276v302l641 856h367v-830h170v-328h-168v-276h-364v276h-646zM397 596h279v135l12 256z" />
<glyph unicode="5" horiz-adv-x="1216" d="M78 440h362q8 -56 57.5 -92.5t116.5 -36.5q76 0 124 50t48 128q0 77 -48 126t-124 49q-84 0 -153 -60h-367l76 830h893v-324h-586l-8 -84l-14 -111q101 52 223 52q215 0 346 -133t131 -349q0 -229 -149.5 -367t-395.5 -138q-241 0 -383.5 123t-148.5 337z" />
<glyph unicode="6" horiz-adv-x="1220" d="M57 487q0 104 44 208t178 311l278 428h406v-43l-301 -447q16 2 49 2q203 0 329.5 -128t126.5 -333q0 -226 -155 -369t-400 -143q-258 0 -406.5 138t-148.5 376zM428 487q0 -82 50 -131t132 -49q85 0 135 49t50 131t-50.5 131.5t-134.5 49.5q-82 0 -132 -49.5t-50 -131.5z " />
<glyph unicode="7" horiz-adv-x="1171" d="M74 1098v336h1050v-226l-585 -1208h-396v35l521 1063h-590z" />
<glyph unicode="8" horiz-adv-x="1218" d="M53 403q0 113 56 205t155 148q-153 118 -153 303q0 175 140 288t357 113q218 0 359 -113t141 -288q0 -189 -156 -301q101 -58 157 -149.5t56 -205.5q0 -191 -155 -310.5t-402 -119.5t-401 119.5t-154 310.5zM434 449q0 -70 46.5 -112t127.5 -42q82 0 129 42t47 112 t-47 111.5t-129 41.5q-81 0 -127.5 -41.5t-46.5 -111.5zM451 1022q0 -63 42.5 -101t114.5 -38q73 0 115.5 38t42.5 101t-42.5 101t-115.5 38q-72 0 -114.5 -38t-42.5 -101z" />
<glyph unicode="9" horiz-adv-x="1232" d="M59 948q0 227 154 369.5t399 142.5q258 0 407.5 -138t149.5 -376q0 -103 -44.5 -206.5t-178.5 -311.5l-278 -428h-404v45l299 444q-16 -2 -49 -2q-203 0 -329 128t-126 333zM430 946q0 -82 50 -131t134 -49q82 0 132.5 49.5t50.5 130.5t-50.5 130.5t-132.5 49.5 q-84 0 -134 -49t-50 -131z" />
<glyph unicode=":" horiz-adv-x="563" d="M84 170q0 86 54.5 138t144.5 52q89 0 142.5 -52t53.5 -138q0 -85 -53.5 -136.5t-142.5 -51.5t-144 51.5t-55 136.5zM84 860q0 85 55 137t144 52t142.5 -52t53.5 -137q0 -86 -53.5 -138t-142.5 -52q-90 0 -144.5 52t-54.5 138z" />
<glyph unicode=";" horiz-adv-x="628" d="M88 -193l92 508h332v-108l-131 -434h-293v34zM150 860q0 85 54.5 137t143.5 52t143 -52t54 -137q0 -86 -54 -138t-143 -52t-143.5 52t-54.5 138z" />
<glyph unicode="&#x3c;" horiz-adv-x="964" d="M53 602v262l793 428h31v-368l-256 -117l-166 -74l166 -78l256 -127v-364h-31z" />
<glyph unicode="=" horiz-adv-x="972" d="M80 342v274h815v-274h-815zM80 741v275h815v-275h-815z" />
<glyph unicode="&#x3e;" horiz-adv-x="964" d="M90 164v364l254 127l166 78l-166 74l-254 117v368h29l792 -428v-262l-792 -438h-29z" />
<glyph unicode="?" horiz-adv-x="1124" d="M53 946q0 230 142 372t374 142q230 0 372 -129t142 -336q0 -128 -55.5 -214t-181.5 -167q-63 -41 -88 -69.5t-25 -61.5v-26h-358v57q0 94 45 157.5t149 131.5q79 52 110.5 87.5t31.5 80.5q0 59 -40 96t-104 37q-72 0 -114.5 -43.5t-42.5 -114.5h-357zM354 170 q0 86 54.5 138t146.5 52t146.5 -52t54.5 -138q0 -85 -54.5 -136.5t-146.5 -51.5t-146.5 51.5t-54.5 136.5z" />
<glyph unicode="@" horiz-adv-x="1742" d="M68 590q0 183 63 339t174.5 264t268 169t339.5 61q357 0 572 -193.5t215 -510.5q0 -224 -118.5 -365t-303.5 -141q-70 0 -124 31t-73 82q-113 -113 -266 -113q-138 0 -228.5 96.5t-90.5 245.5q0 196 112 326.5t281 130.5q68 0 129.5 -27t103.5 -76l33 70h176l-84 -449 q-11 -54 3 -79t55 -25q72 0 116.5 76t44.5 205q0 234 -144 363.5t-404 129.5q-262 0 -431.5 -172.5t-169.5 -441.5q0 -260 162 -410.5t453 -150.5q300 0 541 129l92 -197q-275 -158 -645 -158q-394 0 -623 216t-229 575zM756 582q0 -53 29.5 -85t78.5 -32q63 0 106.5 52 t43.5 128q0 51 -31.5 84t-79.5 33q-63 0 -105 -51t-42 -129z" />
<glyph unicode="A" d="M14 0v43l521 1391h354l522 -1391v-43h-399l-68 221h-463l-71 -221h-396zM571 526h283l-141 406z" />
<glyph unicode="B" horiz-adv-x="1300" d="M139 0v1434h623q191 0 309.5 -108t118.5 -282q0 -87 -35 -162t-98 -126q89 -54 139.5 -145t50.5 -199q0 -185 -129.5 -298.5t-345.5 -113.5h-633zM506 330h233q59 0 93 35t34 94q0 60 -33.5 94.5t-93.5 34.5h-233v-258zM506 889h194q60 0 92.5 29t32.5 83 q0 56 -32.5 86.5t-92.5 30.5h-194v-229z" />
<glyph unicode="C" horiz-adv-x="1593" d="M68 717q0 213 94.5 383t263.5 265t381 95q283 0 481.5 -163t245.5 -433h-389q-35 105 -124 166.5t-206 61.5q-154 0 -253 -105.5t-99 -269.5t99 -269.5t253 -105.5q120 0 211 66t125 176h387q-44 -277 -244 -444t-487 -167q-212 0 -381 95.5t-263.5 265.5t-94.5 383z" />
<glyph unicode="D" horiz-adv-x="1525" d="M139 0v1434h572q218 0 388 -89.5t264.5 -253t94.5 -374.5t-94.5 -374.5t-264.5 -253t-388 -89.5h-572zM524 358h168q169 0 270 97.5t101 261.5t-101 261t-270 97h-168v-717z" />
<glyph unicode="E" horiz-adv-x="1185" d="M139 0v1434h938v-336h-557v-215h514v-330h-514v-211h574v-342h-955z" />
<glyph unicode="F" horiz-adv-x="1126" d="M139 0v1434h903v-349h-518v-249h473v-347h-473v-489h-385z" />
<glyph unicode="G" horiz-adv-x="1613" d="M68 717q0 213 94 383t262.5 265t380.5 95q278 0 475.5 -149t251.5 -400h-391q-95 183 -316 183q-161 0 -262.5 -105t-101.5 -274q0 -170 100.5 -273.5t269.5 -103.5q108 0 186.5 44t119.5 132h-387v281h800q1 -26 1 -52q0 -209 -80 -377q-90 -187 -262 -290t-396 -103 q-161 0 -300 55.5t-236.5 153.5t-153 236t-55.5 299z" />
<glyph unicode="H" horiz-adv-x="1474" d="M139 0v1434h385v-525h426v525h387v-1434h-387v539h-426v-539h-385z" />
<glyph unicode="I" horiz-adv-x="964" d="M80 0v338h209v764h-205v332h797v-332h-205v-764h209v-338h-805z" />
<glyph unicode="J" horiz-adv-x="1034" d="M61 0v358q101 -14 179 -14q154 0 218 69.5t64 200.5v469h-303v351h690v-848q0 -606 -602 -606q-117 0 -246 20z" />
<glyph unicode="K" horiz-adv-x="1351" d="M139 0v1434h387v-553l355 553h419v-43l-444 -660l473 -688v-43h-438l-365 557v-557h-387z" />
<glyph unicode="L" horiz-adv-x="1165" d="M139 0v1434h385v-1076h588v-358h-973z" />
<glyph unicode="M" horiz-adv-x="1751" d="M139 0v1434h314l426 -619l421 619h312v-1434h-385v414l4 338l-264 -385h-183l-266 387l6 -340v-414h-385z" />
<glyph unicode="N" horiz-adv-x="1470" d="M139 0v1434h291l526 -721l-6 323v398h381v-1434h-295l-522 717l6 -369v-348h-381z" />
<glyph unicode="O" horiz-adv-x="1648" d="M68 717q0 213 96.5 383t269.5 265t391 95q163 0 303.5 -55.5t240 -153.5t156 -236t56.5 -298q0 -213 -96.5 -383t-269.5 -265.5t-390 -95.5q-218 0 -391 95.5t-269.5 265.5t-96.5 383zM463 717q0 -164 102.5 -269.5t259.5 -105.5t259 105.5t102 269.5t-102 269.5 t-259 105.5t-259.5 -105.5t-102.5 -269.5z" />
<glyph unicode="P" horiz-adv-x="1267" d="M139 0v1434h572q238 0 380 -141.5t142 -377.5q0 -235 -142 -375.5t-380 -140.5h-187v-399h-385zM520 741h154q82 0 128 46t46 124q0 79 -46 125.5t-128 46.5h-154v-342z" />
<glyph unicode="Q" horiz-adv-x="1662" d="M68 717q0 213 96.5 383t269.5 265t391 95q163 0 303.5 -55.5t240 -153.5t156 -236t56.5 -298q0 -279 -176 -477l248 -297v-43h-375l-125 149q-152 -76 -328 -76q-218 0 -391 95.5t-269.5 265.5t-96.5 383zM465 717q0 -164 101.5 -269.5t258.5 -105.5q41 0 86 10l-235 285 v43h358l115 -137q37 75 37 174q0 164 -102.5 269.5t-258.5 105.5q-157 0 -258.5 -105.5t-101.5 -269.5z" />
<glyph unicode="R" horiz-adv-x="1302" d="M139 0v1434h545q251 0 395 -128t144 -350q0 -153 -72 -263t-205 -161l338 -489v-43h-422l-340 508v-508h-383zM520 772h154q79 0 122.5 40t43.5 114t-43.5 114.5t-122.5 40.5h-154v-309z" />
<glyph unicode="S" horiz-adv-x="1249" d="M61 465h379q12 -146 197 -146q82 0 129 29.5t47 79.5q0 55 -56 87t-190 54q-114 18 -200 48.5t-153 81t-101.5 126.5t-34.5 176q0 212 152 333.5t395 121.5q237 0 384 -125t162 -340h-372q-9 63 -54.5 96t-123.5 33t-121 -28t-43 -80t51.5 -79.5t187.5 -49.5 q502 -72 502 -443q0 -218 -156 -339t-405 -121q-259 0 -412.5 126.5t-163.5 358.5z" />
<glyph unicode="T" horiz-adv-x="1193" d="M43 1081v353h1106v-353h-358v-1081h-388v1081h-360z" />
<glyph unicode="U" horiz-adv-x="1433" d="M125 518v916h387v-852q0 -117 54 -176.5t153 -59.5q97 0 150 59.5t53 176.5v852h387v-916q0 -248 -161.5 -394.5t-428.5 -146.5q-270 0 -432 146t-162 395z" />
<glyph unicode="V" horiz-adv-x="1417" d="M18 1391v43h402l106 -308l185 -546l186 546l107 308h395v-43l-531 -1391h-317z" />
<glyph unicode="W" horiz-adv-x="2086" d="M20 1391v43h396l104 -349l133 -497l260 602h265l260 -602l137 497l106 349h385v-43l-428 -1391h-311l-178 408l-105 254l-104 -254l-174 -408h-311z" />
<glyph unicode="X" horiz-adv-x="1435" d="M31 0v43l444 688l-414 660v43h408l174 -291l74 -129l76 129l178 291h409v-43l-417 -660l442 -688v-43h-420l-192 315l-76 129l-78 -129l-193 -315h-415z" />
<glyph unicode="Y" horiz-adv-x="1370" d="M14 1391v43h420l127 -232l125 -233l125 233l125 232h422v-48l-479 -800v-586h-387v590z" />
<glyph unicode="Z" horiz-adv-x="1234" d="M55 0v209l586 876l-559 -2v351h1083v-207l-579 -875l594 2v-354h-1125z" />
<glyph unicode="[" horiz-adv-x="679" d="M139 -305v2031h508v-299h-160v-1433h162v-299h-510z" />
<glyph unicode="\" horiz-adv-x="978" d="M43 1487v43h352l541 -1618v-43h-354z" />
<glyph unicode="]" horiz-adv-x="681" d="M31 -6h162v1433h-160v299h510v-2031h-512v299z" />
<glyph unicode="^" horiz-adv-x="1150" d="M41 672v35l395 727h281l393 -727v-35h-367l-168 340l-167 -340h-367z" />
<glyph unicode="_" horiz-adv-x="1032" d="M0 -86h1032v-320h-1032v320z" />
<glyph unicode="`" horiz-adv-x="952" d="M111 1485v16h364l176 -293v-16h-301z" />
<glyph unicode="a" horiz-adv-x="1384" d="M61 543q0 250 152 407.5t387 157.5q196 0 336 -121l14 98h305v-1085h-305l-16 96q-141 -119 -334 -119q-159 0 -282.5 74t-190 203t-66.5 289zM424 543q0 -104 66 -171t169 -67t169.5 67t66.5 171t-66.5 170.5t-169.5 66.5t-169 -66.5t-66 -170.5z" />
<glyph unicode="b" horiz-adv-x="1382" d="M131 0v1434h363v-412q128 86 292 86q234 0 384.5 -159t150.5 -406q0 -158 -66 -286.5t-189 -204t-280 -75.5q-191 0 -335 119l-15 -96h-305zM489 543q0 -104 66.5 -171t169.5 -67t169.5 67t66.5 171t-66.5 170.5t-169.5 66.5t-169.5 -66.5t-66.5 -170.5z" />
<glyph unicode="c" horiz-adv-x="1261" d="M59 543q0 249 164 408t420 159q228 0 384 -130t185 -343h-348q-26 66 -84 104.5t-131 38.5q-103 0 -166 -65.5t-63 -171.5t63 -172t166 -66q75 0 131 39t84 107h350q-29 -213 -185.5 -344.5t-385.5 -131.5q-256 0 -420 160t-164 408z" />
<glyph unicode="d" horiz-adv-x="1382" d="M61 543q0 247 150.5 406t382.5 159q161 0 295 -88v414h362v-1434h-305l-14 98q-143 -121 -338 -121q-157 0 -279.5 75.5t-188 204t-65.5 286.5zM420 543q0 -104 66.5 -171t170.5 -67q103 0 169.5 67t66.5 171t-66.5 170.5t-169.5 66.5q-104 0 -170.5 -66.5t-66.5 -170.5z " />
<glyph unicode="e" horiz-adv-x="1277" d="M59 543q0 248 165 407.5t419 159.5q188 0 329.5 -88t206.5 -242q44 -106 44 -227q0 -56 -9 -115h-796q23 -75 81.5 -115t145.5 -40q110 0 176 63h373q-58 -171 -207 -271t-344 -100q-254 0 -419 160.5t-165 407.5zM418 647h459q-22 74 -81.5 116t-148.5 42 q-86 0 -145 -41.5t-84 -116.5z" />
<glyph unicode="f" horiz-adv-x="868" d="M45 770v299h178v43q0 174 112 261t310 87q80 0 189 -16v-250q-44 8 -101 8q-82 0 -120 -31.5t-38 -99.5v-8h246v-293h-235v-770h-363v770h-178z" />
<glyph unicode="g" horiz-adv-x="1353" d="M61 586q0 223 147.5 373.5t369.5 150.5q192 0 329 -115l13 90h305v-907q0 -263 -160.5 -405t-421.5 -142q-152 0 -267.5 42t-190.5 133.5t-89 224.5h350q13 -50 63 -74.5t122 -24.5q104 0 168.5 50t64.5 143v27q-125 -80 -286 -80q-222 0 -369.5 144t-147.5 370zM422 578 q0 -95 60.5 -155.5t160.5 -60.5t161.5 60.5t61.5 155.5q0 94 -61 153.5t-162 59.5q-100 0 -160.5 -59t-60.5 -154z" />
<glyph unicode="h" horiz-adv-x="1333" d="M131 0v1434h363v-453q122 125 315 125q205 0 308.5 -125t103.5 -344v-637h-365v596q0 90 -43 138t-123 48q-90 0 -143 -50.5t-53 -141.5v-590h-363z" />
<glyph unicode="i" horiz-adv-x="622" d="M106 1368q0 85 57 139t148 54q89 0 147 -54t58 -139q0 -84 -57.5 -138t-147.5 -54q-91 0 -148 53.5t-57 138.5zM131 0v1085h363v-1085h-363z" />
<glyph unicode="j" horiz-adv-x="634" d="M-78 -66q66 -8 86 -8q68 0 100.5 33.5t32.5 110.5v1015h363v-1054q0 -206 -106 -303t-298 -97q-71 0 -178 17v286zM113 1368q0 85 57 139t147 54q89 0 147 -54t58 -139q0 -84 -57.5 -138t-147.5 -54q-91 0 -147.5 53.5t-56.5 138.5z" />
<glyph unicode="k" horiz-adv-x="1181" d="M131 0v1434h363v-746l237 397h397v-34l-321 -488l354 -528v-35h-411l-256 412v-412h-363z" />
<glyph unicode="l" horiz-adv-x="624" d="M131 0v1434h365v-1434h-365z" />
<glyph unicode="m" horiz-adv-x="2041" d="M131 0v1085h334l12 -120q56 68 141 104.5t187 36.5q234 0 330 -178q147 178 381 178q199 0 305 -121t106 -348v-637h-362v594q0 90 -43 139t-121 49q-88 0 -139.5 -51t-51.5 -137v-594h-362v594q0 91 -42.5 139.5t-121.5 48.5q-88 0 -139 -51t-51 -137v-594h-363z" />
<glyph unicode="n" horiz-adv-x="1333" d="M131 0v1085h334l12 -122q122 143 332 143q205 0 308.5 -125t103.5 -344v-637h-365v596q0 90 -43 138t-123 48q-90 0 -143 -50.5t-53 -141.5v-590h-363z" />
<glyph unicode="o" horiz-adv-x="1310" d="M59 543q0 164 76.5 293.5t212.5 201.5t307 72t307 -72t212.5 -201.5t76.5 -293.5q0 -247 -168 -407.5t-428 -160.5t-428 160.5t-168 407.5zM422 543q0 -104 66.5 -171t166.5 -67q102 0 168 67t66 171t-66 170.5t-168 66.5q-100 0 -166.5 -66.5t-66.5 -170.5z" />
<glyph unicode="p" horiz-adv-x="1382" d="M131 -342v1427h305l13 -96q145 119 337 119q234 0 384.5 -159t150.5 -406q0 -157 -65.5 -285.5t-188.5 -204.5t-281 -76q-161 0 -292 86v-405h-363zM489 543q0 -104 66.5 -171t169.5 -67t169.5 67t66.5 171t-66.5 170.5t-169.5 66.5t-169.5 -66.5t-66.5 -170.5z" />
<glyph unicode="q" horiz-adv-x="1382" d="M61 543q0 247 150.5 406t384.5 159q193 0 338 -119l12 96h305v-1427h-362v408q-131 -89 -295 -89q-157 0 -280 76t-188 204.5t-65 285.5zM420 543q0 -104 66.5 -171t170.5 -67q103 0 169.5 67t66.5 171t-66.5 170.5t-169.5 66.5q-104 0 -170.5 -66.5t-66.5 -170.5z" />
<glyph unicode="r" horiz-adv-x="919" d="M131 0v1085h332l12 -110q103 127 285 127q52 0 125 -17v-333q-69 14 -133 14q-124 0 -191 -66t-67 -192v-508h-363z" />
<glyph unicode="s" horiz-adv-x="1083" d="M55 344h357q3 -44 39.5 -68t99.5 -24q57 0 91 21t34 55q0 38 -40.5 57.5t-152.5 32.5q-415 49 -415 336q0 162 128 259t343 97q199 0 329.5 -98.5t139.5 -255.5h-342q-9 80 -131 80q-54 0 -83.5 -18t-29.5 -50q0 -38 44.5 -59t154.5 -33q413 -46 413 -342 q0 -161 -133.5 -260t-353.5 -99q-221 0 -352.5 99t-139.5 270z" />
<glyph unicode="t" horiz-adv-x="903" d="M37 786v299h178v222l365 36v-258h239v-299h-239v-356q0 -78 37.5 -109.5t115.5 -31.5q49 0 101 6v-295q-122 -23 -205 -23q-194 0 -304 100.5t-110 301.5v407h-178z" />
<glyph unicode="u" horiz-adv-x="1308" d="M115 449v636h362v-591q0 -91 42 -141t116 -50q91 0 143.5 53.5t52.5 145.5v583h363v-1085h-336l-10 117q-122 -137 -326 -137q-194 0 -300.5 121.5t-106.5 347.5z" />
<glyph unicode="v" horiz-adv-x="1196" d="M18 1049v36h379l119 -352l82 -260l84 260l117 352h379v-36l-420 -1049h-322z" />
<glyph unicode="w" horiz-adv-x="1820" d="M20 1051v34h373l88 -303l84 -303l211 555h268l218 -557l81 305l87 303h370v-34l-340 -1051h-354l-78 213l-117 330l-116 -330l-82 -213h-353z" />
<glyph unicode="x" horiz-adv-x="1210" d="M27 0v37l327 516l-313 496v36h389l94 -163l72 -127l74 127l92 163h385v-36l-311 -500l325 -512v-37h-393l-172 297l-172 -297h-397z" />
<glyph unicode="y" horiz-adv-x="1198" d="M18 1049v36h377l123 -331l80 -252l80 252l125 331h377v-36l-562 -1391h-380v33l170 395z" />
<glyph unicode="z" horiz-adv-x="1032" d="M53 0v172l412 596h-387v317h893v-155l-426 -608l149 2h285v-324h-926z" />
<glyph unicode="{" horiz-adv-x="735" d="M43 555v311q82 6 116 40.5t34 107.5v440q0 132 69 202t197 70h246v-299h-103q-33 0 -46 -13.5t-13 -47.5v-381q0 -103 -42 -174.5t-116 -99.5q74 -28 116 -100t42 -175v-381q0 -34 13 -47.5t46 -13.5h103v-299h-246q-128 0 -197 70t-69 202v441q0 73 -33 106.5t-117 40.5 z" />
<glyph unicode="|" horiz-adv-x="659" d="M139 -256v1849h381v-1849h-381z" />
<glyph unicode="}" horiz-adv-x="735" d="M31 -6h102q34 0 47 13.5t13 47.5v381q0 103 41.5 175t115.5 100q-74 28 -115.5 99.5t-41.5 174.5v381q0 34 -13 47.5t-47 13.5h-102v299h245q128 0 197.5 -70.5t69.5 -201.5v-440q0 -73 33.5 -107.5t115.5 -40.5v-311q-84 -7 -116.5 -40.5t-32.5 -106.5v-441 q0 -131 -69.5 -201.5t-197.5 -70.5h-245v299z" />
<glyph unicode="~" horiz-adv-x="1144" d="M18 649q74 119 167.5 183.5t191.5 64.5q52 0 101.5 -15t79 -31.5t69.5 -43.5q84 -59 139 -59q48 0 88 28t82 88l190 -194q-70 -126 -165.5 -189t-190.5 -63q-101 0 -240 84q-96 61 -149 61q-90 0 -170 -114z" />
<glyph unicode="&#xa1;" horiz-adv-x="647" d="M123 922q0 85 55 136.5t146 51.5q90 0 144 -51.5t54 -136.5q0 -87 -54 -139t-144 -52q-91 0 -146 52.5t-55 138.5zM133 156l37 477h307l35 -477l2 -498h-381v498z" />
<glyph unicode="&#xa2;" horiz-adv-x="1261" d="M59 543q0 210 120.5 360t318.5 193v157h290v-159q172 -37 285.5 -159t138.5 -298h-348q-26 66 -84 104.5t-131 38.5q-103 0 -166 -65.5t-63 -171.5t63 -172t166 -66q75 0 131 39t84 107h350q-25 -177 -139 -299.5t-287 -159.5v-176h-290v174q-198 43 -318.5 193.5 t-120.5 359.5z" />
<glyph unicode="&#xa3;" horiz-adv-x="1212" d="M57 0v317h160v218h-147v299h147v200q0 105 37.5 188t102.5 134t148.5 77.5t180.5 26.5t179 -27t145.5 -80t99 -139.5t35.5 -197.5h-336q0 64 -34.5 98.5t-82.5 34.5q-45 0 -78.5 -33t-33.5 -94v-188h354v-299h-354v-218h589v-317h-1112z" />
<glyph unicode="&#xa4;" horiz-adv-x="1134" d="M102 410l129 125q-57 91 -57 208q0 118 57 209l-129 125l131 131l127 -129q91 54 207 54t207 -54l127 129l131 -131l-127 -127q56 -94 56 -207q0 -112 -56 -206l127 -127l-131 -129l-127 129q-91 -54 -207 -54t-207 54l-127 -129zM410 743q0 -68 44 -112.5t113 -44.5 q68 0 114 45t46 112t-46.5 113.5t-113.5 46.5q-68 0 -112.5 -46t-44.5 -114z" />
<glyph unicode="&#xa5;" horiz-adv-x="1363" d="M14 1391v43h416l131 -234l121 -225l121 225l131 234h416v-48l-387 -628h231v-230h-320v-106h320v-229h-320v-193h-385v193h-319v229h319v106h-319v230h231z" />
<glyph unicode="&#xa6;" horiz-adv-x="659" d="M139 -256v829h381v-829h-381zM139 778v815h381v-815h-381z" />
<glyph unicode="&#xa7;" horiz-adv-x="1050" d="M61 336h345q3 -43 36 -67.5t90 -24.5q53 0 85 18.5t32 50.5q0 36 -39.5 54t-146.5 30q-209 22 -299 96t-90 224q0 122 78 203q-68 68 -68 184q0 160 124.5 256t330.5 96t327.5 -94t128.5 -260h-340q-3 43 -33.5 66.5t-84.5 23.5q-51 0 -81 -18.5t-30 -49.5 q0 -35 38 -53.5t136 -28.5q211 -23 301 -97.5t90 -223.5q0 -112 -69 -193q77 -68 77 -192q0 -161 -129.5 -258.5t-343.5 -97.5q-210 0 -334 94.5t-131 261.5zM412 727q0 -34 44 -55t148 -33h4q47 26 47 72q0 34 -40.5 53.5t-145.5 34.5q-2 0 -6 1t-6 1q-45 -22 -45 -74z" />
<glyph unicode="&#xa8;" horiz-adv-x="1269" d="M211 1362q0 79 52.5 127.5t137.5 48.5q86 0 138.5 -48.5t52.5 -127.5q0 -78 -52.5 -127t-138.5 -49q-85 0 -137.5 49t-52.5 127zM727 1362q0 79 53 127.5t138 48.5q86 0 138 -48t52 -128q0 -78 -52 -127t-138 -49q-85 0 -138 49t-53 127z" />
<glyph unicode="&#xa9;" horiz-adv-x="1667" d="M68 717q0 158 57.5 295.5t158 236t243 155t307.5 56.5q219 0 394 -96.5t273 -266t98 -380.5q0 -158 -57.5 -296t-158 -236.5t-243 -155t-306.5 -56.5q-165 0 -307.5 56.5t-243 155t-158 236.5t-57.5 296zM303 717q0 -231 148.5 -381t382.5 -150q231 0 379.5 150 t148.5 381t-148.5 380.5t-379.5 149.5q-234 0 -382.5 -149.5t-148.5 -380.5zM463 715q0 159 103 257.5t272 98.5q149 0 247 -81.5t115 -217.5h-231q-15 40 -49 63t-78 23q-58 0 -93.5 -40t-35.5 -103q0 -62 35.5 -101t93.5 -39q46 0 79.5 24t47.5 65h233q-19 -137 -116 -218 t-248 -81q-168 0 -271.5 97t-103.5 253z" />
<glyph unicode="&#xaa;" horiz-adv-x="733" d="M27 1106q0 132 80.5 215.5t207.5 83.5q93 0 166 -51l4 39h193v-574h-193l-6 39q-70 -51 -164 -51q-130 0 -209 85.5t-79 213.5zM238 1106q0 -49 31.5 -81t78.5 -32q50 0 81.5 31.5t31.5 81.5q0 51 -31.5 83t-81.5 32q-48 0 -79 -32t-31 -83z" />
<glyph unicode="&#xab;" horiz-adv-x="1236" d="M23 582v53l264 412h364v-35l-282 -404l282 -403v-35h-364zM557 582v53l264 412h365v-35l-281 -404l281 -403v-35h-365z" />
<glyph unicode="&#xac;" horiz-adv-x="1165" d="M80 573v324h985v-588h-336v264h-649z" />
<glyph unicode="&#xad;" horiz-adv-x="845" d="M80 463v319h688v-319h-688z" />
<glyph unicode="&#xae;" horiz-adv-x="1005" d="M51 1004q0 199 127.5 327.5t325.5 128.5t325 -129t127 -327t-128 -327.5t-324 -129.5q-198 0 -325.5 129.5t-127.5 327.5zM184 1004q0 -144 89.5 -235t230.5 -91q140 0 228.5 91t88.5 235q0 145 -88 235t-229 90q-142 0 -231 -89.5t-89 -235.5zM344 791v440h170 q81 0 127.5 -40.5t46.5 -109.5q0 -90 -78 -127l97 -151v-12h-140l-94 151v-151h-129zM471 1028h41q49 0 49 43t-49 43h-41v-86z" />
<glyph unicode="&#xaf;" horiz-adv-x="1054" d="M178 1227v229h701v-229h-701z" />
<glyph unicode="&#xb0;" horiz-adv-x="880" d="M78 1104q0 152 103.5 254t258.5 102q157 0 261 -102t104 -254t-104 -254t-261 -102q-155 0 -258.5 102t-103.5 254zM317 1104q0 -54 35 -89.5t88 -35.5t88 35.5t35 89.5t-35 89.5t-88 35.5t-88 -35.5t-35 -89.5z" />
<glyph unicode="&#xb1;" horiz-adv-x="1015" d="M80 0v289h856v-289h-856zM84 647v305h266v289h316v-289h266v-305h-266v-250h-316v250h-266z" />
<glyph unicode="&#xb2;" horiz-adv-x="675" d="M37 819v156l268 237q49 44 66.5 66.5t17.5 44.5q0 24 -15.5 39.5t-37.5 15.5q-30 0 -46 -18.5t-16 -50.5h-235q0 127 83 204.5t214 77.5q129 0 210 -71t81 -185q0 -76 -35 -134t-105 -116l-81 -67l88 6h139v-205h-596z" />
<glyph unicode="&#xb3;" horiz-adv-x="669" d="M29 1059h233q0 -26 18.5 -43t47.5 -17q28 0 46.5 16.5t18.5 43.5q0 28 -19 44.5t-52 16.5h-66v176h66q31 0 49 16t18 42t-17 41.5t-44 15.5t-44.5 -16.5t-17.5 -40.5h-225q0 106 80.5 171.5t210.5 65.5q123 0 202.5 -60.5t79.5 -152.5q0 -97 -84 -157q52 -31 81.5 -81.5 t29.5 -107.5q0 -102 -86.5 -164.5t-226.5 -62.5q-135 0 -217 69.5t-82 184.5z" />
<glyph unicode="&#xb4;" horiz-adv-x="952" d="M295 1192v16l176 293h365v-16l-240 -293h-301z" />
<glyph unicode="&#xb5;" horiz-adv-x="1409" d="M131 -342v1427h363v-587q0 -94 39 -142.5t114 -48.5q87 0 139 53.5t52 143.5v581h364v-688q0 -56 22 -80t74 -24q36 0 54 4v-297q-76 -12 -135 -12q-108 0 -185 39.5t-114 111.5q-62 -72 -150 -111.5t-190 -39.5q-50 0 -91 12l5 -162v-180h-361z" />
<glyph unicode="&#xb6;" horiz-adv-x="1470" d="M16 971q0 198 144 330.5t370 132.5h801v-1643h-370v1286h-216v-1286h-370v748q-157 29 -258 150t-101 282z" />
<glyph unicode="&#xb7;" horiz-adv-x="563" d="M84 688q0 85 55 137t144 52t142.5 -52t53.5 -137q0 -86 -53.5 -138t-142.5 -52q-90 0 -144.5 52t-54.5 138z" />
<glyph unicode="&#xb8;" horiz-adv-x="651" d="M45 -246q81 -20 162 -20q104 0 104 45q0 47 -80 47q-27 0 -67 -8l-35 43l92 190h203l-62 -121q187 -21 187 -172q0 -107 -74.5 -161t-214.5 -54q-108 0 -215 25v186z" />
<glyph unicode="&#xb9;" horiz-adv-x="542" d="M8 1380l268 197h193v-758h-250v314l4 147l-102 -68z" />
<glyph unicode="&#xba;" horiz-adv-x="696" d="M27 1106q0 133 88 217t233 84t234.5 -84t89.5 -217q0 -132 -89.5 -215.5t-234.5 -83.5t-233 83.5t-88 215.5zM238 1106q0 -49 31.5 -81t78.5 -32q48 0 79.5 32t31.5 81q0 51 -31.5 83t-79.5 32t-79 -32t-31 -83z" />
<glyph unicode="&#xbb;" horiz-adv-x="1236" d="M51 170v35l281 403l-281 404v35h365l264 -412v-53l-264 -412h-365zM586 170v35l282 403l-282 404v35h366l265 -412v-53l-265 -412h-366z" />
<glyph unicode="&#xbc;" horiz-adv-x="1816" d="M8 1237l268 197h193v-758h-250v313l4 148l-102 -68zM354 0l682 1434h271l-684 -1434h-269zM1128 127v188l322 443h256v-426h80v-205h-80v-127h-229v127h-349zM1354 324h129v61l6 127z" />
<glyph unicode="&#xbd;" horiz-adv-x="1794" d="M8 1237l268 197h193v-758h-250v313l4 148l-102 -68zM354 0l682 1434h271l-684 -1434h-269zM1155 0v156l268 237q49 44 66.5 66.5t17.5 44.5q0 24 -15.5 39.5t-37.5 15.5q-30 0 -45.5 -19t-15.5 -51h-236q0 127 83 205t214 78q129 0 210 -71t81 -185q0 -76 -34.5 -134.5 t-104.5 -115.5l-82 -67l88 6h139v-205h-596z" />
<glyph unicode="&#xbe;" horiz-adv-x="1943" d="M29 915h233q0 -26 18.5 -42.5t47.5 -16.5q28 0 46.5 16t18.5 43q0 28 -19 45t-52 17h-66v176h66q31 0 49 15.5t18 41.5t-17 42t-44 16t-44.5 -17t-17.5 -41h-225q0 106 80.5 172t210.5 66q123 0 202.5 -60.5t79.5 -152.5q0 -98 -84 -158q52 -31 81.5 -81t29.5 -107 q0 -102 -86.5 -164.5t-226.5 -62.5q-135 0 -217 69t-82 184zM481 0l682 1434h271l-684 -1434h-269zM1255 127v188l322 443h256v-426h80v-205h-80v-127h-229v127h-349zM1481 324h129v61l6 127z" />
<glyph unicode="&#xbf;" horiz-adv-x="1183" d="M80 96q0 129 56 216t181 167q62 38 87.5 67.5t25.5 61.5v27h358v-55q0 -94 -45 -157.5t-149 -131.5q-79 -52 -110 -87.5t-31 -80.5q0 -60 39 -96.5t104 -36.5q72 0 115 42.5t43 114.5h356q0 -230 -142 -372t-374 -142q-230 0 -372 128t-142 335zM408 922q0 87 54 138.5 t146 51.5t146.5 -52t54.5 -138q0 -85 -54.5 -137t-146.5 -52t-146 52t-54 137z" />
<glyph unicode="&#xc0;" d="M14 0v43l521 1391h354l522 -1391v-43h-399l-68 221h-463l-71 -221h-396zM334 1841v19h368l179 -291v-17h-306zM571 526h283l-141 406z" />
<glyph unicode="&#xc1;" d="M14 0v43l521 1391h354l522 -1391v-43h-399l-68 221h-463l-71 -221h-396zM547 1552v17l180 291h371v-19l-246 -289h-305zM571 526h283l-141 406z" />
<glyph unicode="&#xc2;" d="M14 0v43l521 1391h354l522 -1391v-43h-399l-68 221h-463l-71 -221h-396zM276 1552v33l269 275h336l268 -275v-33h-299l-137 131l-138 -131h-299zM571 526h283l-141 406z" />
<glyph unicode="&#xc3;" d="M14 0v43l521 1391h354l522 -1391v-43h-399l-68 221h-463l-71 -221h-396zM315 1556q0 153 60.5 231.5t175.5 78.5q81 0 166 -51q4 -2 17.5 -9.5t18.5 -10t16.5 -8t18.5 -7.5t17.5 -4t19.5 -2q33 0 47.5 21t14.5 67h225q0 -153 -56.5 -232.5t-164.5 -79.5q-79 0 -164 45 q-5 3 -25 13.5t-27.5 13.5t-22 9.5t-25 8.5t-21.5 2q-65 0 -65 -86h-226zM571 526h283l-141 406z" />
<glyph unicode="&#xc4;" d="M14 0v43l521 1391h354l522 -1391v-43h-399l-68 221h-463l-71 -221h-396zM291 1706q0 78 49.5 126t132.5 48q82 0 132 -48t50 -126t-50.5 -127t-131.5 -49q-83 0 -132.5 48.5t-49.5 127.5zM571 526h283l-141 406zM770 1706q0 78 49.5 126t132.5 48q82 0 132.5 -48 t50.5 -126t-50.5 -127t-132.5 -49q-83 0 -132.5 48.5t-49.5 127.5z" />
<glyph unicode="&#xc5;" d="M14 0v43l521 1391h354l522 -1391v-43h-399l-68 221h-463l-71 -221h-396zM438 1745q0 113 77.5 183.5t199.5 70.5t199 -70.5t77 -183.5q0 -115 -77 -184.5t-199 -69.5q-123 0 -200 69.5t-77 184.5zM571 526h283l-141 406zM618 1745q0 -43 27 -69.5t70 -26.5q42 0 69 27 t27 69t-27 68t-69 26q-43 0 -70 -26t-27 -68z" />
<glyph unicode="&#xc6;" horiz-adv-x="1961" d="M12 0v43l776 1391h1067v-336h-557v-213h514v-332h-514v-211h574v-342h-954v223h-375l-113 -223h-418zM690 528h228v445z" />
<glyph unicode="&#xc7;" horiz-adv-x="1593" d="M68 717q0 213 94.5 383t263.5 265t381 95q283 0 481.5 -163t245.5 -433h-389q-35 105 -124 166.5t-206 61.5q-154 0 -253 -105.5t-99 -269.5t99 -269.5t253 -105.5q120 0 211 66t125 176h387q-41 -255 -214.5 -418t-428.5 -189l-31 -61q98 -8 153.5 -52.5t55.5 -119.5 q0 -201 -303 -201q-109 0 -219 25v186q84 -20 164 -20q106 0 106 41q0 43 -78 43q-21 0 -71 -8l-35 43l59 127q-279 37 -453.5 240t-174.5 497z" />
<glyph unicode="&#xc8;" horiz-adv-x="1185" d="M139 0v1434h938v-336h-557v-215h514v-330h-514v-211h574v-342h-955zM227 1841v19h369l178 -291v-17h-305z" />
<glyph unicode="&#xc9;" horiz-adv-x="1185" d="M139 0v1434h938v-336h-557v-215h514v-330h-514v-211h574v-342h-955zM440 1552v17l181 291h370v-19l-246 -289h-305z" />
<glyph unicode="&#xca;" horiz-adv-x="1185" d="M139 0v1434h938v-336h-557v-215h514v-330h-514v-211h574v-342h-955zM172 1552v33l268 275h336l268 -275v-33h-299l-137 131l-137 -131h-299z" />
<glyph unicode="&#xcb;" horiz-adv-x="1185" d="M139 0v1434h938v-336h-557v-215h514v-330h-514v-211h574v-342h-955zM186 1706q0 78 50 126t133 48q82 0 132 -48t50 -126t-50.5 -127t-131.5 -49q-83 0 -133 49t-50 127zM666 1706q0 78 49.5 126t132.5 48q82 0 132 -48t50 -126t-50.5 -127t-131.5 -49q-83 0 -132.5 48.5 t-49.5 127.5z" />
<glyph unicode="&#xcc;" horiz-adv-x="964" d="M80 0v338h209v764h-205v332h797v-332h-205v-764h209v-338h-805zM102 1841v19h369l178 -291v-17h-305z" />
<glyph unicode="&#xcd;" horiz-adv-x="964" d="M80 0v338h209v764h-205v332h797v-332h-205v-764h209v-338h-805zM315 1552v17l181 291h370v-19l-245 -289h-306z" />
<glyph unicode="&#xce;" horiz-adv-x="964" d="M45 1552v33l268 275h336l269 -275v-33h-300l-137 131l-137 -131h-299zM80 0v338h209v764h-205v332h797v-332h-205v-764h209v-338h-805z" />
<glyph unicode="&#xcf;" horiz-adv-x="964" d="M61 1706q0 78 50 126t133 48q82 0 132 -48t50 -126t-50.5 -127t-131.5 -49q-83 0 -133 49t-50 127zM80 0v338h209v764h-205v332h797v-332h-205v-764h209v-338h-805zM541 1706q0 78 49.5 126t132.5 48q82 0 132 -48t50 -126t-50.5 -127t-131.5 -49q-83 0 -132.5 48.5 t-49.5 127.5z" />
<glyph unicode="&#xd0;" horiz-adv-x="1554" d="M20 575v283h146v576h573q218 0 388 -89.5t265 -253t95 -374.5t-95 -374.5t-265 -253t-388 -89.5h-573v575h-146zM553 358h168q169 0 270 97.5t101 261.5t-101 261t-270 97h-168v-221h278v-272h-278v-224z" />
<glyph unicode="&#xd1;" horiz-adv-x="1470" d="M139 0v1434h291l526 -721l-6 323v398h381v-1434h-295l-522 717l6 -369v-348h-381zM336 1556q0 153 60 231.5t175 78.5q81 0 166 -51q1 -1 17 -9.5t19.5 -10.5t16.5 -8t19.5 -7.5t17 -3.5t19.5 -2q33 0 47 20.5t14 67.5h226q0 -153 -57 -232.5t-165 -79.5q-78 0 -163 45 q-5 3 -25 13.5t-27.5 13.5t-22 9.5t-25 8.5t-21.5 2q-66 0 -66 -86h-225z" />
<glyph unicode="&#xd2;" horiz-adv-x="1648" d="M68 717q0 213 96.5 383t269.5 265t391 95q163 0 303.5 -55.5t240 -153.5t156 -236t56.5 -298q0 -213 -96.5 -383t-269.5 -265.5t-390 -95.5q-218 0 -391 95.5t-269.5 265.5t-96.5 383zM444 1841v19h369l178 -291v-17h-305zM463 717q0 -164 102.5 -269.5t259.5 -105.5 t259 105.5t102 269.5t-102 269.5t-259 105.5t-259.5 -105.5t-102.5 -269.5z" />
<glyph unicode="&#xd3;" horiz-adv-x="1648" d="M68 717q0 213 96.5 383t269.5 265t391 95q163 0 303.5 -55.5t240 -153.5t156 -236t56.5 -298q0 -213 -96.5 -383t-269.5 -265.5t-390 -95.5q-218 0 -391 95.5t-269.5 265.5t-96.5 383zM463 717q0 -164 102.5 -269.5t259.5 -105.5t259 105.5t102 269.5t-102 269.5 t-259 105.5t-259.5 -105.5t-102.5 -269.5zM657 1552v17l181 291h370v-19l-245 -289h-306z" />
<glyph unicode="&#xd4;" horiz-adv-x="1648" d="M68 717q0 213 96.5 383t269.5 265t391 95q163 0 303.5 -55.5t240 -153.5t156 -236t56.5 -298q0 -213 -96.5 -383t-269.5 -265.5t-390 -95.5q-218 0 -391 95.5t-269.5 265.5t-96.5 383zM389 1552v33l268 275h336l269 -275v-33h-299l-138 131l-137 -131h-299zM463 717 q0 -164 102.5 -269.5t259.5 -105.5t259 105.5t102 269.5t-102 269.5t-259 105.5t-259.5 -105.5t-102.5 -269.5z" />
<glyph unicode="&#xd5;" horiz-adv-x="1648" d="M68 717q0 213 96.5 383t269.5 265t391 95q163 0 303.5 -55.5t240 -153.5t156 -236t56.5 -298q0 -213 -96.5 -383t-269.5 -265.5t-390 -95.5q-218 0 -391 95.5t-269.5 265.5t-96.5 383zM426 1556q0 153 60.5 231.5t175.5 78.5q80 0 165 -51q1 -1 17 -9.5t19.5 -10.5 t16.5 -8t19.5 -7.5t17 -3.5t19.5 -2q33 0 47 20.5t14 67.5h226q0 -153 -57 -232.5t-165 -79.5q-78 0 -163 45q-5 3 -25 13.5t-27.5 13.5t-22 9.5t-25 8.5t-21.5 2q-66 0 -66 -86h-225zM463 717q0 -164 102.5 -269.5t259.5 -105.5t259 105.5t102 269.5t-102 269.5t-259 105.5 t-259.5 -105.5t-102.5 -269.5z" />
<glyph unicode="&#xd6;" horiz-adv-x="1648" d="M68 717q0 213 96.5 383t269.5 265t391 95q163 0 303.5 -55.5t240 -153.5t156 -236t56.5 -298q0 -213 -96.5 -383t-269.5 -265.5t-390 -95.5q-218 0 -391 95.5t-269.5 265.5t-96.5 383zM403 1706q0 78 50 126t133 48q82 0 132 -48t50 -126t-50.5 -127t-131.5 -49 q-83 0 -133 49t-50 127zM463 717q0 -164 102.5 -269.5t259.5 -105.5t259 105.5t102 269.5t-102 269.5t-259 105.5t-259.5 -105.5t-102.5 -269.5zM883 1706q0 78 49.5 126t132.5 48q82 0 132 -48t50 -126t-50.5 -127t-131.5 -49q-83 0 -132.5 48.5t-49.5 127.5z" />
<glyph unicode="&#xd7;" horiz-adv-x="958" d="M55 502l209 207l-209 206l217 218l207 -209l207 211l219 -217l-211 -209l209 -205l-217 -219l-207 209l-207 -209z" />
<glyph unicode="&#xd8;" horiz-adv-x="1648" d="M68 717q0 213 96.5 383t269.5 265t391 95q113 0 222 -28l81 147h336v-45l-137 -246q121 -102 187.5 -248.5t66.5 -322.5q0 -213 -96.5 -383t-269.5 -265.5t-390 -95.5q-111 0 -221 29l-84 -147h-336v43l138 247q-121 101 -187.5 248.5t-66.5 323.5zM432 717 q0 -178 111 -293t282 -115t281.5 115t110.5 293t-110.5 292.5t-281.5 114.5t-282 -114.5t-111 -292.5z" />
<glyph unicode="&#xd9;" horiz-adv-x="1433" d="M125 518v916h387v-852q0 -117 54 -176.5t153 -59.5q97 0 150 59.5t53 176.5v852h387v-916q0 -248 -161.5 -394.5t-428.5 -146.5q-270 0 -432 146t-162 395zM338 1841v19h369l178 -291v-17h-305z" />
<glyph unicode="&#xda;" horiz-adv-x="1433" d="M125 518v916h387v-852q0 -117 54 -176.5t153 -59.5q97 0 150 59.5t53 176.5v852h387v-916q0 -248 -161.5 -394.5t-428.5 -146.5q-270 0 -432 146t-162 395zM551 1552v17l180 291h371v-19l-246 -289h-305z" />
<glyph unicode="&#xdb;" horiz-adv-x="1433" d="M125 518v916h387v-852q0 -117 54 -176.5t153 -59.5q97 0 150 59.5t53 176.5v852h387v-916q0 -248 -161.5 -394.5t-428.5 -146.5q-270 0 -432 146t-162 395zM281 1552v33l268 275h336l268 -275v-33h-299l-137 131l-137 -131h-299z" />
<glyph unicode="&#xdc;" horiz-adv-x="1433" d="M125 518v916h387v-852q0 -117 54 -176.5t153 -59.5q97 0 150 59.5t53 176.5v852h387v-916q0 -248 -161.5 -394.5t-428.5 -146.5q-270 0 -432 146t-162 395zM295 1706q0 78 49.5 126t132.5 48q82 0 132 -48t50 -126t-50.5 -127t-131.5 -49q-83 0 -132.5 48.5t-49.5 127.5z M774 1706q0 78 49.5 126t132.5 48q82 0 132.5 -48t50.5 -126t-50.5 -127t-132.5 -49q-83 0 -132.5 48.5t-49.5 127.5z" />
<glyph unicode="&#xdd;" horiz-adv-x="1370" d="M14 1391v43h420l127 -232l125 -233l125 233l125 232h422v-48l-479 -800v-586h-387v590zM518 1552v17l180 291h371v-19l-246 -289h-305z" />
<glyph unicode="&#xde;" horiz-adv-x="1267" d="M139 0v1434h385v-195h187q238 0 380 -141t142 -377t-142 -377t-380 -141h-185v-203h-387zM520 547h154q82 0 128 45.5t46 124.5t-46 124.5t-128 45.5h-154v-340z" />
<glyph unicode="&#xdf;" horiz-adv-x="1312" d="M131 0v981q0 257 149.5 406t407.5 149q227 0 371.5 -114t144.5 -300q0 -213 -164 -327q220 -112 220 -371q0 -210 -124.5 -328.5t-344.5 -118.5q-93 0 -211 23v295q77 -19 135 -19q97 0 140.5 45.5t43.5 139.5q0 180 -201 180h-102v277h98q77 0 123.5 45t46.5 118 q0 71 -48 115.5t-124 44.5q-96 0 -150.5 -62.5t-54.5 -177.5v-1001h-356z" />
<glyph unicode="&#xe0;" horiz-adv-x="1384" d="M61 543q0 250 152 407.5t387 157.5q196 0 336 -121l14 98h305v-1085h-305l-16 96q-141 -119 -334 -119q-159 0 -282.5 74t-190 203t-66.5 289zM332 1485v16h364l176 -293v-16h-301zM424 543q0 -104 66 -171t169 -67t169.5 67t66.5 171t-66.5 170.5t-169.5 66.5 t-169 -66.5t-66 -170.5z" />
<glyph unicode="&#xe1;" horiz-adv-x="1384" d="M61 543q0 250 152 407.5t387 157.5q196 0 336 -121l14 98h305v-1085h-305l-16 96q-141 -119 -334 -119q-159 0 -282.5 74t-190 203t-66.5 289zM424 543q0 -104 66 -171t169 -67t169.5 67t66.5 171t-66.5 170.5t-169.5 66.5t-169 -66.5t-66 -170.5zM516 1192v16l176 293 h365v-16l-240 -293h-301z" />
<glyph unicode="&#xe2;" horiz-adv-x="1384" d="M61 543q0 250 152 407.5t387 157.5q196 0 336 -121l14 98h305v-1085h-305l-16 96q-141 -119 -334 -119q-159 0 -282.5 74t-190 203t-66.5 289zM260 1190v33l268 284h336l269 -284v-33h-299l-138 137l-137 -137h-299zM424 543q0 -104 66 -171t169 -67t169.5 67t66.5 171 t-66.5 170.5t-169.5 66.5t-169 -66.5t-66 -170.5z" />
<glyph unicode="&#xe3;" horiz-adv-x="1384" d="M61 543q0 250 152 407.5t387 157.5q196 0 336 -121l14 98h305v-1085h-305l-16 96q-141 -119 -334 -119q-159 0 -282.5 74t-190 203t-66.5 289zM246 1184q0 160 73.5 249t202.5 89q37 0 74.5 -9.5t57 -18.5t53.5 -26q67 -34 114 -34q62 0 62 77h264q1 -160 -67 -247.5 t-191 -87.5q-80 0 -180 45q-13 5 -34.5 15t-34 15.5t-30 10t-32.5 4.5q-29 0 -46.5 -22.5t-17.5 -59.5h-268zM424 543q0 -104 66 -171t169 -67t169.5 67t66.5 171t-66.5 170.5t-169.5 66.5t-169 -66.5t-66 -170.5z" />
<glyph unicode="&#xe4;" horiz-adv-x="1384" d="M61 543q0 250 152 407.5t387 157.5q196 0 336 -121l14 98h305v-1085h-305l-16 96q-141 -119 -334 -119q-159 0 -282.5 74t-190 203t-66.5 289zM248 1362q0 79 52.5 127.5t137.5 48.5q86 0 138.5 -48.5t52.5 -127.5q0 -78 -52.5 -127t-138.5 -49q-85 0 -137.5 49 t-52.5 127zM424 543q0 -104 66 -171t169 -67t169.5 67t66.5 171t-66.5 170.5t-169.5 66.5t-169 -66.5t-66 -170.5zM764 1362q0 79 52.5 127.5t137.5 48.5q86 0 138.5 -48.5t52.5 -127.5q0 -78 -52.5 -127t-138.5 -49q-85 0 -137.5 49t-52.5 127z" />
<glyph unicode="&#xe5;" horiz-adv-x="1384" d="M61 543q0 250 152 407.5t387 157.5q196 0 336 -121l14 98h305v-1085h-305l-16 96q-141 -119 -334 -119q-159 0 -282.5 74t-190 203t-66.5 289zM424 543q0 -104 66 -171t169 -67t169.5 67t66.5 171t-66.5 170.5t-169.5 66.5t-169 -66.5t-66 -170.5zM424 1430 q0 115 75 186.5t197 71.5q120 0 195.5 -71.5t75.5 -186.5t-75.5 -187t-195.5 -72q-121 0 -196.5 71.5t-75.5 187.5zM598 1430q0 -43 27.5 -70t70.5 -27q42 0 69.5 27.5t27.5 69.5t-27.5 69t-69.5 27q-43 0 -70.5 -26.5t-27.5 -69.5z" />
<glyph unicode="&#xe6;" horiz-adv-x="2144" d="M61 543q0 247 150.5 406t382.5 159q194 0 336 -117l10 94h248l10 -81q143 106 338 106q134 0 245.5 -52t184.5 -141t104.5 -214t10.5 -265h-797q23 -75 81.5 -115t145.5 -40q111 0 177 63h372q-55 -172 -196.5 -271.5t-327.5 -99.5q-193 0 -336 105l-12 -80h-248l-12 94 q-142 -117 -334 -117q-157 0 -279.5 75.5t-188 204t-65.5 286.5zM420 543q0 -104 66.5 -171t170.5 -67q103 0 169.5 67t66.5 171t-66.5 170.5t-169.5 66.5q-104 0 -170.5 -66.5t-66.5 -170.5zM1284 647h459q-22 74 -82 116t-150 42q-85 0 -143.5 -41.5t-83.5 -116.5z" />
<glyph unicode="&#xe7;" horiz-adv-x="1261" d="M59 543q0 249 164 408t420 159q228 0 384 -130t185 -343h-348q-26 66 -84 104.5t-131 38.5q-103 0 -166 -65.5t-63 -171.5t63 -172t166 -66q75 0 131 39t84 107h350q-25 -184 -146 -308.5t-306 -156.5l-29 -56q187 -21 187 -172q0 -107 -74.5 -161t-214.5 -54 q-107 0 -215 25v186q81 -20 162 -20q104 0 104 45q0 47 -80 47q-27 0 -67 -8l-35 43l57 119q-222 28 -360 183t-138 380z" />
<glyph unicode="&#xe8;" horiz-adv-x="1277" d="M59 543q0 248 165 407.5t419 159.5q188 0 329.5 -88t206.5 -242.5t35 -341.5h-796q23 -75 81.5 -115t145.5 -40q110 0 176 63h373q-58 -171 -207 -271t-344 -100q-254 0 -419 160.5t-165 407.5zM279 1485v16h364l176 -293v-16h-301zM418 647h459q-22 74 -81.5 116 t-148.5 42q-86 0 -145 -41.5t-84 -116.5z" />
<glyph unicode="&#xe9;" horiz-adv-x="1277" d="M59 543q0 248 165 407.5t419 159.5q188 0 329.5 -88t206.5 -242.5t35 -341.5h-796q23 -75 81.5 -115t145.5 -40q110 0 176 63h373q-58 -171 -207 -271t-344 -100q-254 0 -419 160.5t-165 407.5zM418 647h459q-22 74 -81.5 116t-148.5 42q-86 0 -145 -41.5t-84 -116.5z M463 1192v16l176 293h365v-16l-240 -293h-301z" />
<glyph unicode="&#xea;" horiz-adv-x="1277" d="M59 543q0 248 165 407.5t419 159.5q188 0 329.5 -88t206.5 -242.5t35 -341.5h-796q23 -75 81.5 -115t145.5 -40q110 0 176 63h373q-58 -171 -207 -271t-344 -100q-254 0 -419 160.5t-165 407.5zM207 1190v33l268 284h336l268 -284v-33h-299l-137 137l-137 -137h-299z M418 647h459q-22 74 -81.5 116t-148.5 42q-86 0 -145 -41.5t-84 -116.5z" />
<glyph unicode="&#xeb;" horiz-adv-x="1277" d="M59 543q0 248 165 407.5t419 159.5q188 0 329.5 -88t206.5 -242.5t35 -341.5h-796q23 -75 81.5 -115t145.5 -40q110 0 176 63h373q-58 -171 -207 -271t-344 -100q-254 0 -419 160.5t-165 407.5zM195 1362q0 79 52.5 127.5t137.5 48.5q86 0 138 -48t52 -128 q0 -78 -52 -127t-138 -49q-85 0 -137.5 49t-52.5 127zM418 647h459q-22 74 -81.5 116t-148.5 42q-86 0 -145 -41.5t-84 -116.5zM711 1362q0 79 52.5 127.5t137.5 48.5q86 0 138.5 -48.5t52.5 -127.5q0 -78 -52.5 -127t-138.5 -49q-85 0 -137.5 49t-52.5 127z" />
<glyph unicode="&#xec;" horiz-adv-x="622" d="M37 1473v18h332l90 -287v-16h-269zM131 0v1085h363v-1085h-363z" />
<glyph unicode="&#xed;" horiz-adv-x="622" d="M131 0v1085h363v-1085h-363zM166 1188v16l90 287h332v-18l-154 -285h-268z" />
<glyph unicode="&#xee;" horiz-adv-x="622" d="M-33 1188v35l213 268h262l213 -268v-35h-274l-70 100l-69 -100h-275zM131 0v1085h363v-1085h-363z" />
<glyph unicode="&#xef;" horiz-adv-x="622" d="M-92 1358q0 79 49 127.5t129 48.5t130 -48.5t50 -127.5q0 -78 -50 -127t-130 -49q-79 0 -128.5 49t-49.5 127zM131 0v1085h363v-1085h-363zM354 1358q0 79 50.5 127.5t130.5 48.5t130 -48.5t50 -127.5q0 -78 -50 -127t-130 -49t-130.5 49t-50.5 127z" />
<glyph unicode="&#xf0;" horiz-adv-x="1302" d="M59 541q0 232 153 383.5t394 165.5l-59 75l-248 -69v151l154 43l-111 144v34h356l68 -88l256 72v-152l-162 -45l230 -301q151 -194 151 -409q0 -249 -166 -410.5t-424 -161.5q-170 0 -305 72.5t-211 202.5t-76 293zM420 545q0 -103 65.5 -171.5t165.5 -68.5 q99 0 164.5 68.5t65.5 171.5t-65 170t-165 67t-165.5 -67t-65.5 -170z" />
<glyph unicode="&#xf1;" horiz-adv-x="1333" d="M131 0v1085h334l12 -122q122 143 332 143q205 0 308.5 -125t103.5 -344v-637h-365v596q0 90 -43 138t-123 48q-90 0 -143 -50.5t-53 -141.5v-590h-363zM217 1184q0 160 74 249t203 89q37 0 74 -9.5t56 -18t54 -26.5q67 -34 115 -34q61 0 61 77h264q1 -160 -67 -247.5 t-191 -87.5q-80 0 -180 45q-13 5 -34.5 15t-34 15.5t-30 10t-32.5 4.5q-29 0 -46.5 -22.5t-17.5 -59.5h-268z" />
<glyph unicode="&#xf2;" horiz-adv-x="1310" d="M59 543q0 164 76.5 293.5t212.5 201.5t307 72t307 -72t212.5 -201.5t76.5 -293.5q0 -247 -168 -407.5t-428 -160.5t-428 160.5t-168 407.5zM291 1485v16h364l176 -293v-16h-301zM422 543q0 -104 66.5 -171t166.5 -67q102 0 168 67t66 171t-66 170.5t-168 66.5 q-100 0 -166.5 -66.5t-66.5 -170.5z" />
<glyph unicode="&#xf3;" horiz-adv-x="1310" d="M59 543q0 164 76.5 293.5t212.5 201.5t307 72t307 -72t212.5 -201.5t76.5 -293.5q0 -247 -168 -407.5t-428 -160.5t-428 160.5t-168 407.5zM422 543q0 -104 66.5 -171t166.5 -67q102 0 168 67t66 171t-66 170.5t-168 66.5q-100 0 -166.5 -66.5t-66.5 -170.5zM475 1192v16 l176 293h365v-16l-240 -293h-301z" />
<glyph unicode="&#xf4;" horiz-adv-x="1310" d="M59 543q0 164 76.5 293.5t212.5 201.5t307 72t307 -72t212.5 -201.5t76.5 -293.5q0 -247 -168 -407.5t-428 -160.5t-428 160.5t-168 407.5zM219 1190v33l268 284h336l269 -284v-33h-299l-138 137l-137 -137h-299zM422 543q0 -104 66.5 -171t166.5 -67q102 0 168 67 t66 171t-66 170.5t-168 66.5q-100 0 -166.5 -66.5t-66.5 -170.5z" />
<glyph unicode="&#xf5;" horiz-adv-x="1310" d="M59 543q0 164 76.5 293.5t212.5 201.5t307 72t307 -72t212.5 -201.5t76.5 -293.5q0 -247 -168 -407.5t-428 -160.5t-428 160.5t-168 407.5zM205 1184q0 160 73.5 249t202.5 89q37 0 74.5 -9.5t57 -18.5t53.5 -26q67 -34 114 -34q62 0 62 77h264q1 -160 -67 -247.5 t-191 -87.5q-80 0 -180 45q-13 5 -34.5 15t-34 15.5t-30 10t-32.5 4.5q-29 0 -46.5 -22.5t-17.5 -59.5h-268zM422 543q0 -104 66.5 -171t166.5 -67q102 0 168 67t66 171t-66 170.5t-168 66.5q-100 0 -166.5 -66.5t-66.5 -170.5z" />
<glyph unicode="&#xf6;" horiz-adv-x="1310" d="M59 543q0 164 76.5 293.5t212.5 201.5t307 72t307 -72t212.5 -201.5t76.5 -293.5q0 -247 -168 -407.5t-428 -160.5t-428 160.5t-168 407.5zM207 1362q0 79 52.5 127.5t137.5 48.5q86 0 138.5 -48.5t52.5 -127.5q0 -78 -52.5 -127t-138.5 -49q-85 0 -137.5 49t-52.5 127z M422 543q0 -104 66.5 -171t166.5 -67q102 0 168 67t66 171t-66 170.5t-168 66.5q-100 0 -166.5 -66.5t-66.5 -170.5zM723 1362q0 79 52.5 127.5t137.5 48.5q86 0 138.5 -48.5t52.5 -127.5q0 -78 -52.5 -127t-138.5 -49q-85 0 -137.5 49t-52.5 127z" />
<glyph unicode="&#xf7;" horiz-adv-x="972" d="M80 561v299h815v-299h-815zM295 276q0 83 53 134t139 51t138.5 -51t52.5 -134t-52.5 -133.5t-138.5 -50.5t-139 50.5t-53 133.5zM295 1145q0 83 53 133.5t139 50.5t138.5 -50.5t52.5 -133.5t-52.5 -133.5t-138.5 -50.5t-139 50.5t-53 133.5z" />
<glyph unicode="&#xf8;" horiz-adv-x="1314" d="M61 543q0 164 76.5 293.5t212.5 201.5t307 72q92 0 168 -20l99 165h295v-34l-152 -254q89 -76 137.5 -185.5t48.5 -238.5q0 -247 -168 -407.5t-428 -160.5q-89 0 -168 21l-100 -166h-293v37l152 252q-89 78 -138 186.5t-49 237.5zM422 543q0 -104 67 -173t168 -69 t168.5 69t67.5 173t-67.5 173.5t-168.5 69.5t-168 -69.5t-67 -173.5z" />
<glyph unicode="&#xf9;" horiz-adv-x="1308" d="M115 449v636h362v-591q0 -91 42 -141t116 -50q91 0 143.5 53.5t52.5 145.5v583h363v-1085h-336l-10 117q-122 -137 -326 -137q-194 0 -300.5 121.5t-106.5 347.5zM297 1485v16h365l176 -293v-16h-301z" />
<glyph unicode="&#xfa;" horiz-adv-x="1308" d="M115 449v636h362v-591q0 -91 42 -141t116 -50q91 0 143.5 53.5t52.5 145.5v583h363v-1085h-336l-10 117q-122 -137 -326 -137q-194 0 -300.5 121.5t-106.5 347.5zM479 1192v16l176 293h365v-16l-240 -293h-301z" />
<glyph unicode="&#xfb;" horiz-adv-x="1308" d="M115 449v636h362v-591q0 -91 42 -141t116 -50q91 0 143.5 53.5t52.5 145.5v583h363v-1085h-336l-10 117q-122 -137 -326 -137q-194 0 -300.5 121.5t-106.5 347.5zM225 1190v33l269 284h335l269 -284v-33h-299l-137 137l-138 -137h-299z" />
<glyph unicode="&#xfc;" horiz-adv-x="1308" d="M115 449v636h362v-591q0 -91 42 -141t116 -50q91 0 143.5 53.5t52.5 145.5v583h363v-1085h-336l-10 117q-122 -137 -326 -137q-194 0 -300.5 121.5t-106.5 347.5zM211 1362q0 79 52.5 127.5t137.5 48.5q86 0 138.5 -48.5t52.5 -127.5q0 -78 -52.5 -127t-138.5 -49 q-85 0 -137.5 49t-52.5 127zM727 1362q0 79 53 127.5t138 48.5q86 0 138 -48t52 -128q0 -78 -52 -127t-138 -49q-85 0 -138 49t-53 127z" />
<glyph unicode="&#xfd;" horiz-adv-x="1198" d="M18 1049v36h377l123 -331l80 -252l80 252l125 331h377v-36l-562 -1391h-380v33l170 395zM418 1192v16l176 293h364v-16l-239 -293h-301z" />
<glyph unicode="&#xfe;" horiz-adv-x="1382" d="M131 -342v1776h363v-412q128 86 292 86q234 0 384.5 -159t150.5 -406q0 -157 -65.5 -285.5t-188.5 -204.5t-281 -76q-161 0 -292 86v-405h-363zM489 543q0 -104 66.5 -171t169.5 -67t169.5 67t66.5 171t-66.5 170.5t-169.5 66.5t-169.5 -66.5t-66.5 -170.5z" />
<glyph unicode="&#xff;" horiz-adv-x="1198" d="M18 1049v36h377l123 -331l80 -252l80 252l125 331h377v-36l-562 -1391h-380v33l170 395zM150 1362q0 79 52.5 127.5t137.5 48.5q86 0 138 -48t52 -128q0 -78 -52 -127t-138 -49q-85 0 -137.5 49t-52.5 127zM666 1362q0 79 52.5 127.5t137.5 48.5q86 0 138.5 -48.5 t52.5 -127.5q0 -78 -52.5 -127t-138.5 -49q-85 0 -137.5 49t-52.5 127z" />
<glyph unicode="&#x152;" horiz-adv-x="2021" d="M68 717q0 213 96.5 383t269.5 265t391 95q115 0 213 -26h877v-336h-563v-215h520v-330h-520v-211h577v-342h-895q-102 -27 -209 -27q-218 0 -391 95.5t-269.5 265.5t-96.5 383zM461 717q0 -166 103.5 -272.5t266.5 -106.5q71 0 150 27v704q-71 27 -150 27 q-163 0 -266.5 -106.5t-103.5 -272.5z" />
<glyph unicode="&#x153;" horiz-adv-x="2101" d="M59 543q0 248 162 407.5t414 159.5q131 0 241.5 -46.5t188.5 -131.5q76 85 184.5 131.5t237.5 46.5q182 0 318.5 -88.5t199 -242.5t33.5 -341h-795q23 -75 81 -115t144 -40q53 0 100.5 17t76.5 46h372q-56 -171 -198.5 -271t-331.5 -100q-128 0 -237 47t-185 132 q-78 -85 -188.5 -132t-241.5 -47q-252 0 -414 160t-162 408zM422 543q0 -104 66.5 -171t166.5 -67q102 0 168 67t66 171t-66 170.5t-168 66.5q-100 0 -166.5 -66.5t-66.5 -170.5zM1243 647h457q-24 74 -84 116t-148 42q-86 0 -144 -41t-81 -117z" />
<glyph unicode="&#x178;" horiz-adv-x="1370" d="M14 1391v43h420l127 -232l125 -233l125 233l125 232h422v-48l-479 -800v-586h-387v590zM264 1706q0 78 49.5 126t132.5 48q82 0 132.5 -48t50.5 -126t-50.5 -127t-132.5 -49q-83 0 -132.5 48.5t-49.5 127.5zM743 1706q0 78 50 126t133 48q82 0 132 -48t50 -126 t-50.5 -127t-131.5 -49q-83 0 -133 49t-50 127z" />
<glyph unicode="&#x2c6;" horiz-adv-x="1257" d="M193 1190v33l268 284h336l268 -284v-33h-299l-137 137l-137 -137h-299z" />
<glyph unicode="&#x2dc;" horiz-adv-x="1232" d="M156 1184q0 160 73.5 249t202.5 89q37 0 74 -9.5t56 -18t54 -26.5q67 -34 115 -34q62 0 62 77h264q1 -160 -67 -247.5t-191 -87.5q-81 0 -181 45q-13 5 -34.5 15t-34 15.5t-30 10t-32.5 4.5q-29 0 -46 -22.5t-17 -59.5h-268z" />
<glyph unicode="&#x2000;" horiz-adv-x="999" />
<glyph unicode="&#x2001;" horiz-adv-x="1999" />
<glyph unicode="&#x2002;" horiz-adv-x="999" />
<glyph unicode="&#x2003;" horiz-adv-x="1999" />
<glyph unicode="&#x2004;" horiz-adv-x="666" />
<glyph unicode="&#x2005;" horiz-adv-x="499" />
<glyph unicode="&#x2006;" horiz-adv-x="333" />
<glyph unicode="&#x2007;" horiz-adv-x="333" />
<glyph unicode="&#x2008;" horiz-adv-x="249" />
<glyph unicode="&#x2009;" horiz-adv-x="399" />
<glyph unicode="&#x200a;" horiz-adv-x="111" />
<glyph unicode="&#x2010;" horiz-adv-x="845" d="M80 463v319h688v-319h-688z" />
<glyph unicode="&#x2011;" horiz-adv-x="845" d="M80 463v319h688v-319h-688z" />
<glyph unicode="&#x2012;" horiz-adv-x="845" d="M80 463v319h688v-319h-688z" />
<glyph unicode="&#x2013;" horiz-adv-x="1202" d="M80 463v319h1044v-319h-1044z" />
<glyph unicode="&#x2014;" horiz-adv-x="1705" d="M80 463v319h1546v-319h-1546z" />
<glyph unicode="&#x2018;" horiz-adv-x="614" d="M104 891v108l129 435h293v-35l-92 -508h-330z" />
<glyph unicode="&#x2019;" horiz-adv-x="614" d="M88 891v35l92 508h332v-109l-131 -434h-293z" />
<glyph unicode="&#x201a;" horiz-adv-x="614" d="M88 -193l92 508h332v-108l-131 -434h-293v34z" />
<glyph unicode="&#x201c;" horiz-adv-x="1030" d="M104 891v108l129 435h293v-35l-92 -508h-330zM518 891v108l131 435h293v-35l-92 -508h-332z" />
<glyph unicode="&#x201d;" horiz-adv-x="1030" d="M88 891v35l92 508h332v-109l-131 -434h-293zM504 891v35l92 508h332v-109l-131 -434h-293z" />
<glyph unicode="&#x201e;" horiz-adv-x="1030" d="M88 -193l92 508h332v-108l-131 -434h-293v34zM504 -193l92 508h332v-108l-131 -434h-293v34z" />
<glyph unicode="&#x2022;" horiz-adv-x="643" d="M84 682q0 101 65.5 164t172.5 63t171 -62.5t64 -164.5q0 -103 -64 -165t-171 -62t-172.5 62t-65.5 165z" />
<glyph unicode="&#x2026;" horiz-adv-x="1607" d="M84 170q0 86 54.5 138t144.5 52q89 0 142.5 -52t53.5 -138q0 -85 -53.5 -136.5t-142.5 -51.5t-144 51.5t-55 136.5zM606 170q0 86 54 138t143 52q91 0 144.5 -52t53.5 -138q0 -85 -54 -136.5t-144 -51.5q-89 0 -143 51.5t-54 136.5zM1128 170q0 86 54 138t143 52 q90 0 144.5 -52t54.5 -138q0 -85 -55 -136.5t-144 -51.5t-143 51.5t-54 136.5z" />
<glyph unicode="&#x202f;" horiz-adv-x="399" />
<glyph unicode="&#x2039;" horiz-adv-x="702" d="M23 582v53l264 412h364v-35l-282 -404l282 -403v-35h-364z" />
<glyph unicode="&#x203a;" horiz-adv-x="702" d="M51 170v35l283 403l-283 404v35h365l264 -412v-53l-264 -412h-365z" />
<glyph unicode="&#x205f;" horiz-adv-x="499" />
<glyph unicode="&#x20ac;" horiz-adv-x="1705" d="M-12 453l47 213h147q-2 16 -2 51t2 53h-190l47 211h184q74 219 260.5 349t436.5 130q283 0 481.5 -160.5t245.5 -427.5h-367q-37 114 -131.5 181t-220.5 67q-93 0 -170 -37.5t-129 -105.5h477l-45 -207h-510q-2 -16 -2 -53t2 -53h483l-45 -207h-358q109 -144 297 -144 q129 0 226 71t132 191h365q-46 -272 -245.5 -437t-485.5 -165q-249 0 -436 130.5t-261 349.5h-235z" />
<glyph unicode="&#x2122;" horiz-adv-x="1501" d="M33 1231v203h563v-203h-162v-455h-239v455h-162zM682 776v658h223l146 -211l149 211h223v-658h-237v150l20 159l-112 -159h-84l-109 157l21 -157v-150h-240z" />
<glyph unicode="&#x25fc;" horiz-adv-x="1085" d="M0 0v1085h1085v-1085h-1085z" />
<glyph unicode="&#xfb03;" horiz-adv-x="2250" d="M45 786v297h178v31q0 170 111 258t309 88q83 0 184 -16v-250q-66 8 -96 8q-80 0 -118 -31t-38 -98v-4h412v72q0 171 112.5 259.5t311.5 88.5q85 0 186 -16v-250q-44 8 -98 8q-82 0 -120 -31t-38 -100v-19h775v-1081h-363v786h-401v-786h-365v786h-401v-786h-363v786h-178 zM1724 1362q0 90 57.5 143.5t153.5 53.5q95 0 152 -54t57 -143q0 -88 -57 -142.5t-152 -54.5q-96 0 -153.5 54.5t-57.5 142.5z" />
<glyph unicode="&#xfb04;" horiz-adv-x="2258" d="M45 784v295h178v35q0 170 111 258t309 88q83 0 184 -16v-250q-66 8 -96 8q-80 0 -118 -31t-38 -98v-8h412v76q0 171 112.5 259.5t311.5 88.5q85 0 186 -16v-250q-44 8 -98 8q-82 0 -120 -31t-38 -100v-23h246v-293h-235v-784h-365v784h-401v-784h-363v784h-178zM1765 0 v1434h365v-1434h-365z" />
</font>
</defs>
</svg>
